<svg width="36" height="30" viewBox="0 0 36 30" fill="none" xmlns="http://www.w3.org/2000/svg">
<path d="M4.72727 4H27.2727C28.4802 3.99992 29.6419 4.45869 30.5196 5.28219C31.3973 6.1057 31.9244 7.2315 31.9927 8.42867L32 8.69444V25.3056C32.0001 26.5046 31.5381 27.6583 30.7088 28.5299C29.8796 29.4015 28.7459 29.9249 27.5404 29.9928L27.2727 30H4.72727C3.5198 30.0001 2.35807 29.5413 1.48039 28.7178C0.602716 27.8943 0.0756344 26.7685 0.0072729 25.5713L1.01457e-08 25.3056V8.69444C-7.90498e-05 7.49536 0.461897 6.34169 1.29116 5.47011C2.12042 4.59853 3.2541 4.07511 4.45964 4.00722L4.72727 4H27.2727H4.72727ZM29.8182 12.5294L16.5033 19.405C16.3743 19.4716 16.2332 19.5118 16.0884 19.5235C15.9435 19.5352 15.7977 19.518 15.6596 19.4729L15.4967 19.405L2.18182 12.5294V25.3056C2.18184 25.9399 2.42207 26.5511 2.85481 27.0178C3.28755 27.4844 3.88116 27.7725 4.51782 27.8247L4.72727 27.8333H27.2727C27.9118 27.8333 28.5274 27.5945 28.9974 27.1645C29.4674 26.7345 29.7572 26.1446 29.8095 25.5121L29.8182 25.3056V12.5294ZM27.2727 6.16667H4.72727C4.08845 6.16669 3.47299 6.40525 3.00307 6.83498C2.53314 7.26472 2.24311 7.85421 2.19055 8.48644L2.18182 8.69444V10.0869L16 17.2224L29.8182 10.0869V8.69444C29.8181 8.05983 29.5777 7.44845 29.1447 6.98176C28.7116 6.51506 28.1176 6.22719 27.4807 6.17533L27.2727 6.16667Z" fill="#141516"/>
<circle cx="30" cy="6" r="5.5" fill="#006AFF" stroke="#F5F5F5"/>
<path d="M30.007 9.57L30 5V4.5L28.423 5.907L28 4.863L30.007 3H31.303V9.57H30.007Z" fill="white"/>
</svg>
